<?xml version="1.0" encoding="utf-8"?>
<!-- Generator: Adobe Illustrator 23.0.2, SVG Export Plug-In . SVG Version: 6.00 Build 0)  -->
<svg version="1.1" id="圖層_1" xmlns="http://www.w3.org/2000/svg" xmlns:xlink="http://www.w3.org/1999/xlink" x="0px" y="0px"
	 viewBox="0 0 216.6 214" style="enable-background:new 0 0 216.6 214;" xml:space="preserve">
<style type="text/css">
	.st0{fill:url(#SVGID_1_);}
</style>
<linearGradient id="SVGID_1_" gradientUnits="userSpaceOnUse" x1="4.9234" y1="107.3458" x2="208.9477" y2="107.3458" gradientTransform="matrix(1 0 0 -1 0 215.2756)">
	<stop  offset="0" style="stop-color:#D81681"/>
	<stop  offset="1" style="stop-color:#DA2F74"/>
</linearGradient>
<path class="st0" d="M189.6,28.7c-36.7-6-73.4-12.6-109.5-21.6c-18.9-4.8-37.9,3.4-41.9,19.7c-8.2,34-18,67.8-30.8,100.4
	c-6.7,16.8,0.5,34.1,17.9,38.9c37.8,10.3,73.6,24.1,109.4,39.8c18.8,8.9,37.2,3.6,40.9-14.7c7.9-40.2,18.4-79.4,30.6-118.5
	C213.1,51.7,206.8,31.6,189.6,28.7z M177,163.5h-22.5v-24.4c0-3.4-2.8-6.2-6.2-6.2h6.2l0,0H67.6c-3.4,0-6.2,2.8-6.2,6.2v24.4H38.8
	v-82h22.5v22.6c0,3.4,2.7,6.2,6.1,6.2h81c3.3-0.1,6-2.8,6-6.2V81.5H177V163.5z M177,74.6c0,0.3,0,0.5,0,0.9c-0.4-0.1-0.7-0.3-1-0.4
	c-15.5-6.5-31.1-12.9-46.6-19.4c-6.8-2.8-13.6-5.7-20.4-8.5c-0.3-0.2-0.7-0.2-1-0.2s-0.6,0-1,0.2c-6.8,2.8-13.6,5.7-20.4,8.5
	c-15.6,6.5-31.2,13-46.7,19.5c-0.3,0.1-0.6,0.2-1,0.4c0-0.4-0.1-0.7-0.1-0.9c0-7.6,0-15.2,0-22.8c0-0.6,0.2-0.8,0.7-1
	c1.8-0.7,3.5-1.5,5.3-2.2c10-4.2,20-8.4,30-12.7c10.5-4.4,21.1-8.9,31.6-13.3c0.6-0.2,1.1-0.3,1.6-0.3s1,0.1,1.6,0.3
	C120,27,130.5,31.5,141,35.9c10,4.2,20,8.4,30,12.7c1.8,0.7,3.5,1.5,5.3,2.2c0.5,0.2,0.7,0.5,0.7,1C177,59.4,177,67,177,74.6z"/>
</svg>
